<?xml version="1.0" standalone="no"?>
<!DOCTYPE svg PUBLIC "-//W3C//DTD SVG 20010904//EN"
 "http://www.w3.org/TR/2001/REC-SVG-20010904/DTD/svg10.dtd">
<svg version="1.0" xmlns="http://www.w3.org/2000/svg"
 width="373.000000pt" height="346.000000pt" viewBox="0 0 373.000000 346.000000"
 preserveAspectRatio="xMidYMid meet">

<g transform="translate(0.000000,346.000000) scale(0.100000,-0.100000)"
fill="#000000" stroke="none">
<path d="M1857 3349 c-368 -32 -717 -194 -992 -461 l-80 -77 933 -1 c512 0
932 -2 932 -5 0 -16 -56 -126 -95 -186 -75 -117 -167 -195 -278 -238 -37 -14
-153 -17 -995 -21 l-953 -5 390 -79 c214 -44 395 -82 401 -86 7 -5 6 -26 -5
-71 -8 -35 -15 -70 -15 -76 0 -10 137 -13 650 -13 l650 0 0 -22 c0 -34 -61
-176 -97 -228 -41 -60 -130 -143 -181 -169 -101 -51 -91 -51 -1047 -52 -770
-1 -882 -3 -830 -14 33 -8 201 -43 374 -79 173 -36 316 -68 319 -71 6 -5 -13
-110 -25 -140 -4 -13 91 -15 732 -15 l738 0 -6 -28 c-11 -55 -48 -141 -87
-201 -77 -119 -188 -198 -309 -221 -33 -6 -394 -10 -945 -11 l-891 -1 130 -29
c72 -17 230 -54 352 -84 l222 -54 88 -76 c394 -340 909 -473 1407 -365 563
123 1019 535 1195 1080 127 395 100 812 -79 1187 -244 514 -741 859 -1315 913
-121 11 -158 11 -288 -1z"/>
</g>
</svg>
